<svg xmlns="http://www.w3.org/2000/svg" xmlns:xlink="http://www.w3.org/1999/xlink" width="180" zoomAndPan="magnify" viewBox="0 0 135 135.000003" height="180" preserveAspectRatio="xMidYMid meet" version="1.0"><defs><g/><clipPath id="c5e5c31393"><path d="M 104.347656 52.632812 L 111.386719 52.632812 L 111.386719 60.023438 L 104.347656 60.023438 Z M 104.347656 52.632812 " clip-rule="nonzero"/></clipPath><clipPath id="be72fb1f18"><path d="M 106.078125 56.019531 L 111 56.019531 L 111 60.648438 L 106.078125 60.648438 Z M 106.078125 56.019531 " clip-rule="nonzero"/></clipPath></defs><g fill="#08b3d6" fill-opacity="1"><g transform="translate(47.13891, 74.939991)"><g><path d="M 3.25 -13.515625 L 3.25 -16.796875 L 1.96875 -18.0625 L 1.96875 -13.515625 L 0 -13.515625 L 0 -12.234375 L 7.96875 -12.234375 L 7.96875 -13.515625 Z M 8 -1.328125 L 8 -0.015625 L 6.71875 -0.015625 C 6.050781 -0.015625 5.429688 -0.140625 4.859375 -0.390625 C 4.285156 -0.640625 3.785156 -0.984375 3.359375 -1.421875 C 2.929688 -1.859375 2.59375 -2.363281 2.34375 -2.9375 C 2.09375 -3.507812 1.96875 -4.128906 1.96875 -4.796875 L 1.96875 -10.953125 L 3.25 -10.953125 L 3.25 -4.765625 C 3.25 -4.296875 3.335938 -3.847656 3.515625 -3.421875 C 3.703125 -3.003906 3.953125 -2.640625 4.265625 -2.328125 C 4.585938 -2.023438 4.957031 -1.78125 5.375 -1.59375 C 5.789062 -1.414062 6.238281 -1.328125 6.71875 -1.328125 Z M 8 -1.328125 "/></g></g></g><g fill="#08b3d6" fill-opacity="1"><g transform="translate(56.233805, 74.939991)"><g><path d="M 6.671875 -0.921875 C 7.710938 -0.921875 8.601562 -1.125 9.34375 -1.53125 C 10.09375 -1.945312 10.742188 -2.453125 11.296875 -3.046875 L 12.1875 -2.25 C 11.84375 -1.882812 11.476562 -1.546875 11.09375 -1.234375 C 10.71875 -0.921875 10.304688 -0.648438 9.859375 -0.421875 C 9.410156 -0.203125 8.921875 -0.03125 8.390625 0.09375 C 7.859375 0.21875 7.269531 0.28125 6.625 0.28125 C 5.875 0.28125 5.15625 0.160156 4.46875 -0.078125 C 3.78125 -0.316406 3.15625 -0.65625 2.59375 -1.09375 C 2.03125 -1.539062 1.539062 -2.082031 1.125 -2.71875 C 0.707031 -3.351562 0.40625 -4.054688 0.21875 -4.828125 L 1.59375 -4.828125 C 1.769531 -4.203125 2.019531 -3.644531 2.34375 -3.15625 C 2.675781 -2.664062 3.066406 -2.253906 3.515625 -1.921875 C 3.960938 -1.597656 4.457031 -1.347656 5 -1.171875 C 5.539062 -1.003906 6.097656 -0.921875 6.671875 -0.921875 Z M 6.359375 -12.65625 C 5.691406 -12.65625 5.066406 -12.519531 4.484375 -12.25 C 3.910156 -11.988281 3.398438 -11.617188 2.953125 -11.140625 C 2.515625 -10.671875 2.15625 -10.113281 1.875 -9.46875 C 1.59375 -8.832031 1.425781 -8.140625 1.375 -7.390625 L 11.1875 -7.390625 C 11.144531 -8.085938 11.015625 -8.75 10.796875 -9.375 C 10.578125 -10.007812 10.265625 -10.570312 9.859375 -11.0625 C 9.460938 -11.550781 8.972656 -11.9375 8.390625 -12.21875 C 7.816406 -12.507812 7.140625 -12.65625 6.359375 -12.65625 Z M 0.015625 -6.109375 C 0.00390625 -6.234375 0 -6.34375 0 -6.4375 C 0 -6.53125 0 -6.628906 0 -6.734375 L 0 -6.796875 C 0 -7.765625 0.160156 -8.679688 0.484375 -9.546875 C 0.804688 -10.410156 1.253906 -11.15625 1.828125 -11.78125 C 2.398438 -12.414062 3.078125 -12.914062 3.859375 -13.28125 C 4.640625 -13.65625 5.488281 -13.84375 6.40625 -13.84375 C 7.34375 -13.84375 8.191406 -13.671875 8.953125 -13.328125 C 9.710938 -12.984375 10.351562 -12.484375 10.875 -11.828125 C 11.40625 -11.171875 11.8125 -10.363281 12.09375 -9.40625 C 12.375 -8.445312 12.515625 -7.347656 12.515625 -6.109375 Z M 0.015625 -6.109375 "/></g></g></g><g fill="#08b3d6" fill-opacity="1"><g transform="translate(69.854068, 74.939991)"><g><path d="M 6.828125 -12.609375 C 6.097656 -12.609375 5.414062 -12.472656 4.78125 -12.203125 C 4.15625 -11.941406 3.601562 -11.578125 3.125 -11.109375 C 2.644531 -10.648438 2.253906 -10.097656 1.953125 -9.453125 C 1.648438 -8.816406 1.460938 -8.128906 1.390625 -7.390625 L 0 -7.390625 C 0.0703125 -8.273438 0.300781 -9.109375 0.6875 -9.890625 C 1.070312 -10.671875 1.566406 -11.351562 2.171875 -11.9375 C 2.785156 -12.519531 3.488281 -12.984375 4.28125 -13.328125 C 5.070312 -13.671875 5.925781 -13.84375 6.84375 -13.84375 C 7.476562 -13.84375 8.054688 -13.773438 8.578125 -13.640625 C 9.097656 -13.515625 9.578125 -13.332031 10.015625 -13.09375 C 10.460938 -12.851562 10.863281 -12.585938 11.21875 -12.296875 C 11.582031 -12.003906 11.925781 -11.6875 12.25 -11.34375 L 11.328125 -10.40625 C 10.734375 -11 10.082031 -11.515625 9.375 -11.953125 C 8.675781 -12.390625 7.828125 -12.609375 6.828125 -12.609375 Z M 12.34375 -2.390625 C 12 -1.984375 11.632812 -1.617188 11.25 -1.296875 C 10.875 -0.972656 10.460938 -0.691406 10.015625 -0.453125 C 9.566406 -0.222656 9.078125 -0.046875 8.546875 0.078125 C 8.023438 0.210938 7.457031 0.28125 6.84375 0.28125 C 5.914062 0.28125 5.050781 0.113281 4.25 -0.21875 C 3.457031 -0.5625 2.753906 -1.019531 2.140625 -1.59375 C 1.535156 -2.175781 1.046875 -2.851562 0.671875 -3.625 C 0.296875 -4.40625 0.0703125 -5.234375 0 -6.109375 L 1.40625 -6.109375 C 1.476562 -5.378906 1.671875 -4.695312 1.984375 -4.0625 C 2.296875 -3.425781 2.695312 -2.875 3.1875 -2.40625 C 3.6875 -1.945312 4.253906 -1.582031 4.890625 -1.3125 C 5.523438 -1.050781 6.207031 -0.921875 6.9375 -0.921875 C 7.894531 -0.921875 8.742188 -1.132812 9.484375 -1.5625 C 10.222656 -1.988281 10.878906 -2.523438 11.453125 -3.171875 Z M 12.34375 -2.390625 "/></g></g></g><g fill="#08b3d6" fill-opacity="1"><g transform="translate(83.297732, 74.939991)"><g><path d="M 5.171875 -13.515625 C 5.828125 -13.515625 6.53125 -13.375 7.28125 -13.09375 C 8.03125 -12.8125 8.722656 -12.382812 9.359375 -11.8125 C 9.992188 -11.25 10.519531 -10.546875 10.9375 -9.703125 C 11.351562 -8.867188 11.5625 -7.894531 11.5625 -6.78125 L 11.5625 -0.015625 L 10.171875 -0.015625 L 10.171875 -6.78125 C 10.171875 -7.6875 10.007812 -8.484375 9.6875 -9.171875 C 9.363281 -9.859375 8.953125 -10.425781 8.453125 -10.875 C 7.953125 -11.332031 7.398438 -11.675781 6.796875 -11.90625 C 6.191406 -12.132812 5.613281 -12.25 5.0625 -12.25 L 2.578125 -12.25 L 2.578125 -13.515625 Z M 0 -0.015625 L 1.296875 -0.015625 L 1.296875 -18.0625 L 0 -19.34375 Z M 0 -0.015625 "/></g></g></g><g fill="#08b3d6" fill-opacity="1"><g transform="translate(95.96877, 74.939991)"><g><path d="M 3.90625 -13.515625 C 4.863281 -13.515625 5.757812 -13.332031 6.59375 -12.96875 C 7.4375 -12.613281 8.175781 -12.117188 8.8125 -11.484375 C 9.445312 -10.847656 9.941406 -10.109375 10.296875 -9.265625 C 10.660156 -8.429688 10.84375 -7.535156 10.84375 -6.578125 L 10.84375 -0.015625 L 9.5625 -0.015625 L 9.5625 -6.578125 C 9.5625 -7.359375 9.410156 -8.085938 9.109375 -8.765625 C 8.816406 -9.453125 8.410156 -10.050781 7.890625 -10.5625 C 7.378906 -11.082031 6.78125 -11.488281 6.09375 -11.78125 C 5.414062 -12.082031 4.6875 -12.234375 3.90625 -12.234375 L 2.578125 -12.234375 L 2.578125 -13.515625 Z M 1.296875 -12.234375 L 0 -13.515625 L 0 -0.015625 L 1.296875 -0.015625 Z M 1.296875 -12.234375 "/></g></g></g><g fill="#08b3d6" fill-opacity="1"><g transform="translate(107.911332, 74.939991)"><g><path d="M 1.328125 -12.25 L 1.328125 -0.015625 L 0.015625 -0.015625 L 0.015625 -13.515625 Z M 1.296875 -19.34375 L 1.296875 -18.0625 L 0 -18.0625 L 0 -19.34375 Z M 1.296875 -19.34375 "/></g></g></g><g fill="#08b3d6" fill-opacity="1"><g transform="translate(110.339579, 74.939991)"><g><path d="M 1.609375 0.015625 L 5.4375 -4.71875 L 4.640625 -5.71875 L 0 0.015625 Z M 7.046875 -8.71875 L 7.859375 -7.734375 L 12.5 -13.46875 L 10.890625 -13.46875 Z M 1.609375 -13.46875 L 12.5 0.015625 L 10.890625 0.015625 L 0 -13.46875 Z M 1.609375 -13.46875 "/></g></g></g><g clip-path="url(#c5e5c31393)"><path fill="#ffffff" d="M 104.347656 52.632812 L 111.386719 52.632812 L 111.386719 60.03125 L 104.347656 60.03125 Z M 104.347656 52.632812 " fill-opacity="1" fill-rule="nonzero"/></g><g clip-path="url(#be72fb1f18)"><path fill="#395cb2" d="M 106.851562 58.703125 C 106.839844 58.648438 106.832031 58.59375 106.824219 58.539062 C 106.820312 58.480469 106.816406 58.425781 106.816406 58.371094 C 106.816406 58.175781 106.851562 57.980469 106.917969 57.800781 C 106.984375 57.621094 107.082031 57.449219 107.207031 57.300781 L 107.300781 57.378906 C 107.183594 57.515625 107.089844 57.671875 107.03125 57.839844 C 106.96875 58.007812 106.9375 58.1875 106.9375 58.371094 C 106.9375 58.421875 106.9375 58.476562 106.945312 58.527344 C 106.949219 58.578125 106.957031 58.628906 106.96875 58.679688 Z M 107.074219 59.769531 C 106.8125 59.503906 106.632812 59.179688 106.550781 58.828125 C 106.464844 58.476562 106.476562 58.105469 106.59375 57.75 L 106.777344 57.808594 C 106.671875 58.132812 106.660156 58.46875 106.734375 58.785156 C 106.808594 59.101562 106.972656 59.394531 107.210938 59.636719 Z M 108.679688 60.339844 C 108.414062 60.367188 108.152344 60.339844 107.90625 60.265625 C 107.65625 60.191406 107.425781 60.066406 107.21875 59.898438 L 107.339844 59.753906 C 107.523438 59.90625 107.734375 60.015625 107.960938 60.082031 C 108.183594 60.148438 108.421875 60.171875 108.660156 60.148438 Z M 106.484375 59.101562 C 106.347656 58.726562 106.324219 58.328125 106.398438 57.949219 C 106.476562 57.574219 106.65625 57.214844 106.925781 56.925781 L 106.960938 56.957031 C 106.695312 57.242188 106.519531 57.589844 106.445312 57.957031 C 106.371094 58.328125 106.394531 58.71875 106.53125 59.082031 Z M 107.359375 56.570312 C 107.417969 56.53125 107.480469 56.5 107.546875 56.46875 C 107.609375 56.4375 107.675781 56.40625 107.742188 56.382812 C 107.980469 56.296875 108.226562 56.253906 108.472656 56.253906 C 108.71875 56.253906 108.964844 56.296875 109.199219 56.382812 L 109.183594 56.425781 C 108.953125 56.34375 108.710938 56.300781 108.472656 56.300781 C 108.230469 56.300781 107.988281 56.34375 107.761719 56.425781 C 107.695312 56.453125 107.628906 56.480469 107.566406 56.511719 C 107.503906 56.539062 107.441406 56.574219 107.382812 56.613281 Z M 109.488281 56.511719 C 109.597656 56.570312 109.703125 56.640625 109.800781 56.722656 C 109.898438 56.800781 109.992188 56.886719 110.074219 56.984375 L 110.039062 57.015625 C 109.957031 56.921875 109.867188 56.835938 109.773438 56.757812 C 109.675781 56.679688 109.574219 56.613281 109.464844 56.550781 Z M 110.253906 57.226562 C 110.296875 57.289062 110.335938 57.359375 110.371094 57.425781 C 110.40625 57.496094 110.433594 57.566406 110.460938 57.640625 C 110.660156 58.179688 110.625 58.753906 110.40625 59.242188 C 110.183594 59.726562 109.78125 60.132812 109.242188 60.34375 L 109.226562 60.296875 C 109.75 60.09375 110.144531 59.699219 110.359375 59.222656 C 110.578125 58.742188 110.609375 58.1875 110.417969 57.65625 C 110.390625 57.585938 110.359375 57.515625 110.328125 57.449219 C 110.292969 57.378906 110.257812 57.316406 110.214844 57.25 Z M 108.550781 60.488281 C 108.164062 60.5 107.785156 60.40625 107.460938 60.230469 C 107.132812 60.050781 106.851562 59.785156 106.652344 59.449219 L 106.695312 59.425781 C 106.886719 59.75 107.160156 60.011719 107.480469 60.1875 C 107.800781 60.363281 108.167969 60.453125 108.546875 60.4375 Z M 107.050781 60.234375 C 106.699219 59.964844 106.4375 59.609375 106.28125 59.210938 C 106.128906 58.8125 106.085938 58.371094 106.167969 57.9375 L 106.285156 57.960938 C 106.207031 58.375 106.25 58.789062 106.394531 59.167969 C 106.539062 59.546875 106.789062 59.886719 107.121094 60.140625 Z M 106.359375 57.351562 C 106.394531 57.28125 106.433594 57.210938 106.472656 57.144531 C 106.515625 57.074219 106.5625 57.007812 106.609375 56.945312 C 106.777344 56.726562 106.980469 56.539062 107.210938 56.390625 C 107.441406 56.246094 107.699219 56.136719 107.96875 56.078125 L 107.996094 56.195312 C 107.738281 56.25 107.496094 56.351562 107.277344 56.492188 C 107.058594 56.632812 106.863281 56.808594 106.703125 57.019531 C 106.65625 57.078125 106.613281 57.140625 106.574219 57.203125 C 106.535156 57.269531 106.5 57.335938 106.464844 57.402344 Z M 108.316406 56.027344 C 108.453125 56.019531 108.59375 56.023438 108.734375 56.039062 C 108.875 56.054688 109.011719 56.082031 109.144531 56.121094 L 109.113281 56.234375 C 108.984375 56.199219 108.851562 56.171875 108.722656 56.15625 C 108.589844 56.140625 108.457031 56.136719 108.324219 56.148438 Z M 109.457031 56.238281 C 109.535156 56.277344 109.613281 56.316406 109.6875 56.359375 C 109.757812 56.402344 109.828125 56.453125 109.898438 56.503906 C 110.40625 56.894531 110.710938 57.449219 110.796875 58.035156 C 110.882812 58.621094 110.746094 59.242188 110.367188 59.757812 L 110.273438 59.6875 C 110.628906 59.199219 110.757812 58.609375 110.679688 58.050781 C 110.597656 57.496094 110.308594 56.96875 109.828125 56.597656 C 109.761719 56.550781 109.695312 56.503906 109.625 56.460938 C 109.554688 56.417969 109.484375 56.382812 109.410156 56.347656 Z M 109.804688 60.304688 C 109.449219 60.546875 109.042969 60.683594 108.628906 60.710938 C 108.21875 60.738281 107.796875 60.65625 107.414062 60.464844 L 107.46875 60.359375 C 107.832031 60.542969 108.230469 60.621094 108.621094 60.59375 C 109.015625 60.566406 109.402344 60.4375 109.734375 60.207031 Z M 106.820312 57.28125 C 106.859375 57.226562 106.898438 57.171875 106.941406 57.121094 C 106.984375 57.066406 107.027344 57.015625 107.074219 56.972656 C 107.238281 56.804688 107.433594 56.671875 107.640625 56.574219 C 107.851562 56.480469 108.074219 56.417969 108.308594 56.398438 L 108.324219 56.589844 C 108.113281 56.605469 107.910156 56.660156 107.722656 56.75 C 107.53125 56.835938 107.359375 56.957031 107.210938 57.105469 C 107.164062 57.148438 107.125 57.195312 107.085938 57.242188 C 107.046875 57.289062 107.011719 57.335938 106.980469 57.386719 Z M 106.820312 57.28125 " fill-opacity="1" fill-rule="nonzero"/></g><g fill="#1a5494" fill-opacity="1"><g transform="translate(10.955571, 75.181733)"><g><path d="M 19.609375 0 L 17.890625 0 L 9.8125 -18.296875 L 1.71875 0 L 0 0 L 8.9375 -20.25 L 8.0625 -22.203125 L 9.8125 -22.203125 L 10.6875 -20.25 Z M 19.609375 0 "/></g></g></g><g fill="#1a5494" fill-opacity="1"><g transform="translate(31.859115, 75.181733)"><g><path d="M 2.59375 -12.5625 C 2 -13.050781 1.5625 -13.613281 1.28125 -14.25 C 1 -14.894531 0.859375 -15.632812 0.859375 -16.46875 L 0.859375 -16.515625 C 0.859375 -17.328125 1.03125 -18.078125 1.375 -18.765625 C 1.726562 -19.460938 2.210938 -20.066406 2.828125 -20.578125 C 3.441406 -21.085938 4.171875 -21.484375 5.015625 -21.765625 C 5.867188 -22.054688 6.796875 -22.203125 7.796875 -22.203125 C 8.585938 -22.203125 9.3125 -22.144531 9.96875 -22.03125 C 10.632812 -21.925781 11.257812 -21.765625 11.84375 -21.546875 C 12.4375 -21.335938 13.007812 -21.066406 13.5625 -20.734375 C 14.113281 -20.410156 14.660156 -20.03125 15.203125 -19.59375 L 14.1875 -18.328125 C 13.164062 -19.203125 12.128906 -19.820312 11.078125 -20.1875 C 10.035156 -20.5625 8.921875 -20.75 7.734375 -20.75 C 6.941406 -20.75 6.21875 -20.644531 5.5625 -20.4375 C 4.914062 -20.226562 4.363281 -19.9375 3.90625 -19.5625 C 3.445312 -19.1875 3.09375 -18.75 2.84375 -18.25 C 2.59375 -17.757812 2.46875 -17.234375 2.46875 -16.671875 L 2.46875 -16.625 C 2.46875 -16.164062 2.519531 -15.738281 2.625 -15.34375 C 2.738281 -14.957031 2.929688 -14.597656 3.203125 -14.265625 C 3.484375 -13.941406 3.863281 -13.632812 4.34375 -13.34375 C 4.832031 -13.0625 5.445312 -12.800781 6.1875 -12.5625 Z M 11.671875 -11.09375 C 13.140625 -10.550781 14.195312 -9.863281 14.84375 -9.03125 C 15.5 -8.207031 15.828125 -7.175781 15.828125 -5.9375 L 15.828125 -5.890625 C 15.828125 -5.023438 15.648438 -4.226562 15.296875 -3.5 C 14.941406 -2.769531 14.453125 -2.144531 13.828125 -1.625 C 13.203125 -1.113281 12.453125 -0.710938 11.578125 -0.421875 C 10.710938 -0.140625 9.753906 0 8.703125 0 C 6.972656 0 5.414062 -0.285156 4.03125 -0.859375 C 2.644531 -1.429688 1.300781 -2.296875 0 -3.453125 L 1.046875 -4.640625 C 1.628906 -4.097656 2.210938 -3.625 2.796875 -3.21875 C 3.378906 -2.8125 3.984375 -2.476562 4.609375 -2.21875 C 5.242188 -1.957031 5.898438 -1.765625 6.578125 -1.640625 C 7.253906 -1.515625 7.988281 -1.453125 8.78125 -1.453125 C 9.59375 -1.453125 10.332031 -1.5625 11 -1.78125 C 11.664062 -2 12.238281 -2.296875 12.71875 -2.671875 C 13.207031 -3.054688 13.582031 -3.507812 13.84375 -4.03125 C 14.101562 -4.5625 14.234375 -5.128906 14.234375 -5.734375 L 14.234375 -5.78125 C 14.234375 -6.351562 14.144531 -6.867188 13.96875 -7.328125 C 13.789062 -7.785156 13.472656 -8.203125 13.015625 -8.578125 C 12.554688 -8.953125 11.929688 -9.285156 11.140625 -9.578125 C 10.359375 -9.867188 9.359375 -10.132812 8.140625 -10.375 C 7.640625 -10.476562 7.164062 -10.585938 6.71875 -10.703125 C 6.269531 -10.828125 5.847656 -10.957031 5.453125 -11.09375 Z M 11.671875 -11.09375 "/></g></g></g></svg>